<svg xmlns="http://www.w3.org/2000/svg" width="512" height="512" viewBox="0 0 512 512" version="1.1"><path d="" stroke="none" fill="#17506B" fill-rule="evenodd"/><path d="M 0 256.002 L 0 512.004 256.250 511.752 L 512.500 511.500 512.752 255.750 L 513.004 0 464.504 0 L 416.005 0 415.753 191.384 L 415.500 382.767 255.750 335.160 L 96 287.553 96 143.776 L 96 0 48 0 L 0 0 0 256.002 M 159 120.319 L 159 240.639 255.250 269.322 C 308.188 285.098, 351.837 298.004, 352.250 298.003 C 352.663 298.001, 353 230.950, 353 149 L 353 0 256 0 L 159 0 159 120.319 M 0.492 256.500 C 0.492 397.300, 0.608 454.751, 0.750 384.170 C 0.892 313.588, 0.892 198.388, 0.750 128.170 C 0.608 57.951, 0.492 115.700, 0.492 256.500" stroke="none" fill="#106791" fill-rule="evenodd"/></svg>